<?xml version="1.0" encoding="UTF-8" standalone="no"?>
<svg
   version="1.1"
   viewBox="-10 0 2048 2048"
   id="svg1"
   width="2048"
   height="2048"
   sodipodi:docname="construction-bg.svg"
   xmlns:inkscape="http://www.inkscape.org/namespaces/inkscape"
   xmlns:sodipodi="http://sodipodi.sourceforge.net/DTD/sodipodi-0.dtd"
   xmlns="http://www.w3.org/2000/svg"
   xmlns:svg="http://www.w3.org/2000/svg">
  <sodipodi:namedview
     id="namedview1"
     pagecolor="#ffffff"
     bordercolor="#000000"
     borderopacity="0.25"
     inkscape:showpageshadow="2"
     inkscape:pageopacity="0.0"
     inkscape:pagecheckerboard="0"
     inkscape:deskcolor="#d1d1d1" />
  <defs
     id="defs1" />
  <path
     fill="currentColor"
     d="M 515,540 293,318 336,275 558,498 Z M -41,540 -83,498 195,219 77,101 55,123 17,84 v 72 L -5,178 -110,73 -88,52 h 72 L -55,14 32,-73 Q 46,-87 62.5,-93.5 79,-100 97,-100 q 19,0 35.5,6.5 Q 149,-87 163,-73 L 97,-7 141,37 119,59 238,177 340,74 q -9,-13 -13,-27 -4,-14 -4,-30 0,-49 34,-83 34,-34 83,-34 11,0 20.5,1.5 9.5,1.5 18.5,5.5 l -82,83 70,70 83,-82 q 5,9 6,18.5 1,9.5 1,20.5 0,49 -34,83 -34,34 -83,34 -16,0 -30,-3.5 Q 396,127 383,117 Z"
     id="path1"
     style="fill:#121212;fill-opacity:1" />
</svg>
