<?xml version="1.0" encoding="UTF-8" standalone="no"?>
<svg
   version="1.1"
   viewBox="-10 0 2048 2048"
   id="svg1"
   width="2048"
   height="2048"
   xml:space="preserve"
   xmlns="http://www.w3.org/2000/svg"
   xmlns:svg="http://www.w3.org/2000/svg"><defs
     id="defs1" /><path
     fill="currentColor"
     d="m 230,440 h 40 V 220 h -40 z m 20,-277 q 10,0 17.5,-7 7.5,-7 7.5,-18 0,-10 -7.5,-17 -7.5,-7 -17.5,-7 -10,0 -17.5,7 -7.5,7 -7.5,17 0,11 7.5,18 7.5,7 17.5,7 z m 0,457 Q 175,620 109.5,591.5 44,563 -4.5,514.5 -53,466 -81.5,400.5 -110,335 -110,260 -110,185 -81.5,119.5 -53,54 -4.5,5.5 44,-43.000003 109.5,-71.500003 175,-100 250,-100 q 75,0 140.5,28.499997 65.5,28.5 114,77.000003 48.5,48.5 77,114 Q 610,185 610,260 q 0,75 -28.5,140.5 -28.5,65.5 -77,114 -48.5,48.5 -114,77 Q 325,620 250,620 Z m 0,-40 q 134,0 227,-93 93,-93 93,-227 0,-134 -93,-227 -93,-93.000003 -227,-93.000003 -134,0 -227,93.000003 -93,93 -93,227 0,134 93,227 93,93 227,93 z m 0,-320 z"
     id="path1"
     style="fill:#121212;fill-opacity:1" /></svg>
