<?xml version="1.0" encoding="UTF-8" standalone="no"?>
<!DOCTYPE svg PUBLIC "-//W3C//DTD SVG 20010904//EN"
              "http://www.w3.org/TR/2001/REC-SVG-20010904/DTD/svg10.dtd">

<svg xmlns="http://www.w3.org/2000/svg"
     width="1.94333in" height="0.58in"
     viewBox="0 0 583 174">
  <path id="Selection"
        fill="white" stroke-width="0"
        d="M 327.00,38.00
           C 327.00,38.00 326.00,51.00 326.00,51.00
             326.00,51.00 327.00,52.00 327.00,52.00
             327.00,52.00 330.00,51.00 330.00,51.00
             330.00,51.00 331.00,55.00 331.00,55.00
             331.00,55.00 327.00,54.00 327.00,54.00
             327.00,54.00 327.00,67.00 327.00,67.00
             327.00,67.00 326.34,84.00 326.34,84.00
             326.34,84.00 327.00,95.00 327.00,95.00
             327.00,95.00 322.00,95.00 322.00,95.00
             322.00,95.00 322.00,108.00 322.00,108.00
             322.00,108.00 327.00,108.00 327.00,108.00
             327.00,108.00 326.00,112.00 326.00,112.00
             326.00,112.00 332.00,112.00 332.00,112.00
             332.00,112.00 332.00,108.00 332.00,108.00
             332.00,108.00 336.00,108.00 336.00,108.00
             336.00,108.00 336.00,96.00 336.00,96.00
             336.00,96.00 340.00,96.00 340.00,96.00
             340.00,96.00 340.00,54.00 340.00,54.00
             340.00,54.00 336.00,55.00 336.00,55.00
             339.94,49.09 349.01,51.97 355.00,51.00
             355.00,51.00 355.00,56.00 355.00,56.00
             355.00,56.00 363.00,55.00 363.00,55.00
             363.00,55.00 363.00,60.00 363.00,60.00
             363.00,60.00 367.00,60.00 367.00,60.00
             367.00,60.00 367.00,72.00 367.00,72.00
             367.00,72.00 371.00,72.00 371.00,72.00
             371.00,72.00 371.00,91.00 371.00,91.00
             371.00,91.00 367.00,91.00 367.00,91.00
             367.00,91.00 367.00,95.00 367.00,95.00
             367.00,95.00 363.00,95.00 363.00,95.00
             363.00,95.00 363.00,99.00 363.00,99.00
             363.00,99.00 359.00,99.00 359.00,99.00
             359.00,99.00 359.00,103.00 359.00,103.00
             359.00,103.00 355.00,103.00 355.00,103.00
             355.00,103.00 355.00,107.00 355.00,107.00
             355.00,107.00 351.00,107.00 351.00,107.00
             351.00,107.00 351.00,111.00 351.00,111.00
             351.00,111.00 343.00,111.00 343.00,111.00
             343.00,111.00 343.00,115.00 343.00,115.00
             343.00,115.00 339.00,115.00 339.00,115.00
             339.00,115.00 339.00,119.92 339.00,119.92
             339.00,119.92 333.00,119.92 333.00,119.92
             327.88,119.34 321.79,117.07 322.22,125.00
             322.22,125.00 323.00,129.00 323.00,129.00
             323.00,129.00 327.00,128.00 327.00,128.00
             327.00,128.00 326.00,132.00 326.00,132.00
             328.92,132.73 336.85,134.04 338.98,131.40
             339.84,130.34 339.79,129.22 340.00,128.00
             340.00,128.00 348.00,129.00 348.00,129.00
             348.00,129.00 348.00,124.00 348.00,124.00
             348.00,124.00 351.00,125.00 351.00,125.00
             351.00,125.00 352.00,120.00 352.00,120.00
             352.00,120.00 355.00,121.00 355.00,121.00
             355.00,121.00 356.00,116.00 356.00,116.00
             356.00,116.00 360.00,116.00 360.00,116.00
             360.00,116.00 360.00,112.00 360.00,112.00
             360.00,112.00 364.00,112.00 364.00,112.00
             364.00,112.00 364.00,108.00 364.00,108.00
             364.00,108.00 372.00,108.00 372.00,108.00
             372.00,108.00 372.00,104.00 372.00,104.00
             372.00,104.00 376.00,104.00 376.00,104.00
             376.00,104.00 376.00,100.00 376.00,100.00
             376.00,100.00 380.00,100.00 380.00,100.00
             380.00,100.00 380.00,92.00 380.00,92.00
             380.00,92.00 384.00,92.00 384.00,92.00
             384.00,92.00 384.00,71.00 384.00,71.00
             384.00,71.00 380.00,71.00 380.00,71.00
             380.00,71.00 380.00,58.00 380.00,58.00
             380.00,58.00 376.00,59.00 376.00,59.00
             376.00,59.00 376.00,54.00 376.00,54.00
             376.00,54.00 372.00,55.00 372.00,55.00
             372.00,55.00 372.00,46.00 372.00,46.00
             372.00,46.00 364.00,46.00 364.00,46.00
             364.00,46.00 364.00,42.00 364.00,42.00
             364.00,42.00 356.00,43.00 356.00,43.00
             356.00,43.00 356.00,38.00 356.00,38.00
             356.00,38.00 343.00,38.91 343.00,38.91
             343.00,38.91 327.00,38.00 327.00,38.00 Z
           M 530.00,49.00
           C 530.00,49.00 530.00,53.00 530.00,53.00
             530.00,53.00 526.00,53.00 526.00,53.00
             526.00,53.00 526.00,57.00 526.00,57.00
             526.00,57.00 522.00,57.00 522.00,57.00
             522.00,57.00 522.00,61.00 522.00,61.00
             522.00,61.00 518.00,61.00 518.00,61.00
             518.00,61.00 518.00,65.00 518.00,65.00
             518.00,65.00 514.00,65.00 514.00,65.00
             514.00,65.00 514.00,70.00 514.00,70.00
             514.00,70.00 510.00,69.00 510.00,69.00
             510.00,69.00 510.00,74.00 510.00,74.00
             510.00,74.00 506.00,73.00 506.00,73.00
             506.00,73.00 506.00,77.00 506.00,77.00
             506.00,77.00 491.00,78.00 491.00,78.00
             491.00,78.00 491.00,65.00 491.00,65.00
             491.00,65.00 478.00,65.00 478.00,65.00
             478.00,65.00 477.34,73.00 477.34,73.00
             477.34,73.00 478.00,83.00 478.00,83.00
             478.00,83.00 482.00,82.00 482.00,82.00
             482.00,82.00 482.00,119.00 482.00,119.00
             482.00,119.00 495.00,119.00 495.00,119.00
             495.00,119.00 495.00,115.00 495.00,115.00
             495.00,115.00 499.00,115.00 499.00,115.00
             499.00,115.00 499.00,107.00 499.00,107.00
             499.00,107.00 503.00,107.00 503.00,107.00
             503.00,107.00 503.00,103.00 503.00,103.00
             503.00,103.00 510.00,103.00 510.00,103.00
             510.00,103.00 510.00,115.00 510.00,115.00
             510.00,115.00 514.00,115.00 514.00,115.00
             514.00,115.00 514.00,119.00 514.00,119.00
             514.00,119.00 518.00,119.00 518.00,119.00
             518.00,119.00 518.00,123.00 518.00,123.00
             518.00,123.00 522.00,123.00 522.00,123.00
             522.00,123.00 522.00,131.00 522.00,131.00
             522.00,131.00 526.00,131.00 526.00,131.00
             526.00,131.00 526.00,136.00 526.00,136.00
             526.00,136.00 530.00,136.00 530.00,136.00
             531.71,140.88 534.36,139.98 539.00,140.00
             539.00,140.00 540.00,127.00 540.00,127.00
             540.00,127.00 535.00,126.00 535.00,126.00
             535.00,126.00 535.00,122.00 535.00,122.00
             535.00,122.00 531.00,122.00 531.00,122.00
             531.00,122.00 532.00,119.00 532.00,119.00
             532.00,119.00 527.00,118.00 527.00,118.00
             527.00,118.00 527.00,114.00 527.00,114.00
             527.00,114.00 523.00,114.00 523.00,114.00
             523.00,114.00 523.00,102.00 523.00,102.00
             523.00,102.00 519.00,102.00 519.00,102.00
             519.00,102.00 519.00,94.00 519.00,94.00
             519.00,94.00 515.00,94.00 515.00,94.00
             515.00,94.00 515.00,83.00 515.00,83.00
             515.00,83.00 519.00,83.00 519.00,83.00
             519.00,83.00 519.00,78.00 519.00,78.00
             519.00,78.00 523.00,79.00 523.00,79.00
             523.00,79.00 523.00,74.00 523.00,74.00
             523.00,74.00 527.00,75.00 527.00,75.00
             527.00,75.00 527.00,66.00 527.00,66.00
             527.00,66.00 535.00,67.00 535.00,67.00
             535.00,67.00 535.00,62.00 535.00,62.00
             535.00,62.00 539.00,62.00 539.00,62.00
             539.00,62.00 538.36,50.02 538.36,50.02
             538.36,50.02 530.00,49.00 530.00,49.00 Z
           M 287.00,52.00
           C 287.00,52.00 287.00,57.00 287.00,57.00
             287.00,57.00 279.00,56.00 279.00,56.00
             279.00,56.00 279.00,60.00 279.00,60.00
             274.91,60.17 271.00,59.09 271.00,64.00
             271.00,64.00 262.00,65.00 262.00,65.00
             262.00,65.00 263.00,69.00 263.00,69.00
             263.00,69.00 246.00,68.00 246.00,68.00
             246.00,68.00 250.00,82.00 250.00,82.00
             250.00,82.00 250.00,114.00 250.00,114.00
             250.00,114.00 254.00,114.00 254.00,114.00
             254.00,114.00 254.00,126.00 254.00,126.00
             254.00,126.00 259.00,126.00 259.00,126.00
             259.00,126.00 259.00,131.00 259.00,131.00
             259.00,131.00 263.00,130.00 263.00,130.00
             263.00,130.00 262.00,134.00 262.00,134.00
             262.00,134.00 268.00,134.00 268.00,134.00
             268.00,134.00 267.00,114.00 267.00,114.00
             267.00,114.00 271.00,114.00 271.00,114.00
             271.00,114.00 271.00,118.00 271.00,118.00
             271.00,118.00 275.00,118.00 275.00,118.00
             275.00,118.00 274.00,122.00 274.00,122.00
             274.00,122.00 279.00,122.00 279.00,122.00
             279.00,122.00 279.00,126.00 279.00,126.00
             279.00,126.00 283.00,126.00 283.00,126.00
             283.00,126.00 283.00,130.00 283.00,130.00
             283.00,130.00 287.00,130.00 287.00,130.00
             287.00,130.00 287.00,134.00 287.00,134.00
             287.00,134.00 291.00,139.00 291.00,139.00
             291.00,139.00 300.00,139.00 300.00,139.00
             300.00,139.00 300.00,129.00 300.00,129.00
             300.00,129.00 296.00,129.00 296.00,129.00
             296.00,129.00 296.00,125.00 296.00,125.00
             296.00,125.00 292.00,125.00 292.00,125.00
             292.00,125.00 292.00,121.00 292.00,121.00
             292.00,121.00 288.00,121.00 288.00,121.00
             288.00,121.00 288.00,113.00 288.00,113.00
             288.00,113.00 284.00,113.00 284.00,113.00
             284.00,113.00 284.00,109.00 284.00,109.00
             284.00,109.00 279.00,109.00 279.00,109.00
             279.00,109.00 280.00,98.00 280.00,98.00
             280.00,98.00 284.00,98.00 284.00,98.00
             284.00,98.00 284.00,94.00 284.00,94.00
             284.00,94.00 288.00,94.00 288.00,94.00
             288.00,94.00 288.00,90.00 288.00,90.00
             288.00,90.00 292.00,90.00 292.00,90.00
             292.00,90.00 292.00,86.00 292.00,86.00
             292.00,86.00 296.00,86.00 296.00,86.00
             296.00,86.00 296.00,82.00 296.00,82.00
             296.00,82.00 300.00,82.00 300.00,82.00
             300.00,82.00 300.00,74.00 300.00,74.00
             300.00,74.00 304.00,74.00 304.00,74.00
             304.00,74.00 304.00,60.00 304.00,60.00
             304.00,60.00 300.00,61.00 300.00,61.00
             300.00,61.00 300.00,56.00 300.00,56.00
             300.00,56.00 296.00,56.00 296.00,56.00
             296.00,56.00 296.00,52.00 296.00,52.00
             296.00,52.00 287.00,52.00 287.00,52.00 Z
           M 445.00,52.00
           C 445.00,52.00 445.00,57.00 445.00,57.00
             445.00,57.00 437.00,56.00 437.00,56.00
             437.00,56.00 437.00,60.00 437.00,60.00
             432.91,60.17 429.00,59.09 429.00,64.00
             429.00,64.00 420.00,65.00 420.00,65.00
             420.00,65.00 421.00,69.00 421.00,69.00
             421.00,69.00 404.00,68.00 404.00,68.00
             404.00,68.00 408.00,82.00 408.00,82.00
             408.00,82.00 408.00,114.00 408.00,114.00
             408.00,114.00 412.00,114.00 412.00,114.00
             412.00,114.00 412.00,126.00 412.00,126.00
             412.00,126.00 417.00,126.00 417.00,126.00
             417.00,126.00 417.00,131.00 417.00,131.00
             417.00,131.00 421.00,130.00 421.00,130.00
             421.00,130.00 420.00,134.00 420.00,134.00
             420.00,134.00 426.00,134.00 426.00,134.00
             426.00,134.00 425.00,114.00 425.00,114.00
             425.00,114.00 429.00,114.00 429.00,114.00
             429.00,114.00 429.00,118.00 429.00,118.00
             429.00,118.00 433.00,118.00 433.00,118.00
             433.00,118.00 432.00,122.00 432.00,122.00
             432.00,122.00 437.00,122.00 437.00,122.00
             437.00,122.00 437.00,126.00 437.00,126.00
             437.00,126.00 441.00,126.00 441.00,126.00
             441.00,126.00 441.00,130.00 441.00,130.00
             441.00,130.00 445.00,130.00 445.00,130.00
             445.00,130.00 445.00,134.00 445.00,134.00
             445.00,134.00 449.00,139.00 449.00,139.00
             449.00,139.00 458.00,139.00 458.00,139.00
             458.00,139.00 458.00,129.00 458.00,129.00
             458.00,129.00 454.00,129.00 454.00,129.00
             454.00,129.00 454.00,125.00 454.00,125.00
             454.00,125.00 450.00,125.00 450.00,125.00
             450.00,125.00 450.00,121.00 450.00,121.00
             450.00,121.00 446.00,121.00 446.00,121.00
             446.00,121.00 446.00,113.00 446.00,113.00
             446.00,113.00 442.00,113.00 442.00,113.00
             442.00,113.00 442.00,109.00 442.00,109.00
             442.00,109.00 437.00,109.00 437.00,109.00
             437.00,109.00 438.00,98.00 438.00,98.00
             438.00,98.00 442.00,98.00 442.00,98.00
             442.00,98.00 442.00,94.00 442.00,94.00
             442.00,94.00 446.00,94.00 446.00,94.00
             446.00,94.00 446.00,90.00 446.00,90.00
             446.00,90.00 450.00,90.00 450.00,90.00
             450.00,90.00 450.00,86.00 450.00,86.00
             450.00,86.00 454.00,86.00 454.00,86.00
             454.00,86.00 454.00,82.00 454.00,82.00
             454.00,82.00 458.00,82.00 458.00,82.00
             458.00,82.00 458.00,74.00 458.00,74.00
             458.00,74.00 462.00,74.00 462.00,74.00
             462.00,74.00 462.00,60.00 462.00,60.00
             462.00,60.00 458.00,61.00 458.00,61.00
             458.00,61.00 458.00,56.00 458.00,56.00
             458.00,56.00 454.00,56.00 454.00,56.00
             454.00,56.00 454.00,52.00 454.00,52.00
             454.00,52.00 445.00,52.00 445.00,52.00 Z
           M 291.00,66.00
           C 291.00,66.00 291.00,73.00 291.00,73.00
             291.00,73.00 287.00,73.00 287.00,73.00
             287.00,73.00 287.00,77.00 287.00,77.00
             287.00,77.00 282.00,77.00 282.00,77.00
             282.00,77.00 283.00,81.00 283.00,81.00
             283.00,81.00 279.00,81.00 279.00,81.00
             279.00,81.00 279.00,85.00 279.00,85.00
             279.00,85.00 274.00,86.00 274.00,86.00
             274.00,86.00 275.00,89.00 275.00,89.00
             275.00,89.00 270.00,89.00 270.00,89.00
             270.00,89.00 271.00,93.00 271.00,93.00
             271.00,93.00 266.00,93.00 266.00,93.00
             266.00,93.00 267.00,97.00 267.00,97.00
             267.00,97.00 263.00,97.00 263.00,97.00
             263.00,97.00 263.00,82.00 263.00,82.00
             263.00,82.00 268.00,82.00 268.00,82.00
             268.00,82.00 267.00,78.00 267.00,78.00
             267.00,78.00 272.00,78.00 272.00,78.00
             272.00,78.00 272.00,74.00 272.00,74.00
             272.00,74.00 280.00,74.00 280.00,74.00
             280.00,74.00 280.00,69.00 280.00,69.00
             280.00,69.00 288.00,70.00 288.00,70.00
             288.00,70.00 288.00,66.00 288.00,66.00
             288.00,66.00 291.00,66.00 291.00,66.00 Z
           M 449.00,66.00
           C 449.00,66.00 449.00,73.00 449.00,73.00
             449.00,73.00 445.00,73.00 445.00,73.00
             445.00,73.00 445.00,77.00 445.00,77.00
             445.00,77.00 440.00,77.00 440.00,77.00
             440.00,77.00 441.00,81.00 441.00,81.00
             441.00,81.00 437.00,81.00 437.00,81.00
             437.00,81.00 437.00,85.00 437.00,85.00
             437.00,85.00 432.00,86.00 432.00,86.00
             432.00,86.00 433.00,89.00 433.00,89.00
             433.00,89.00 428.00,89.00 428.00,89.00
             428.00,89.00 429.00,93.00 429.00,93.00
             429.00,93.00 424.00,93.00 424.00,93.00
             424.00,93.00 425.00,97.00 425.00,97.00
             425.00,97.00 421.00,97.00 421.00,97.00
             421.00,97.00 421.00,82.00 421.00,82.00
             421.00,82.00 426.00,82.00 426.00,82.00
             426.00,82.00 425.00,78.00 425.00,78.00
             425.00,78.00 430.00,78.00 430.00,78.00
             430.00,78.00 430.00,74.00 430.00,74.00
             430.00,74.00 438.00,74.00 438.00,74.00
             438.00,74.00 438.00,69.00 438.00,69.00
             438.00,69.00 446.00,70.00 446.00,70.00
             446.00,70.00 446.00,66.00 446.00,66.00
             446.00,66.00 449.00,66.00 449.00,66.00 Z
           M 222.00,92.00
           C 214.86,87.70 213.53,86.78 205.00,87.02
             178.18,87.76 178.18,133.24 205.00,133.98
             213.53,134.22 214.86,133.30 222.00,129.00
             223.45,133.14 227.38,134.34 229.83,130.69
             231.01,128.91 230.97,126.07 231.00,124.00
             231.00,124.00 231.00,78.00 231.00,78.00
             230.99,75.72 231.13,72.26 229.83,70.31
             228.15,67.80 224.04,67.38 222.60,70.31
             221.58,72.39 222.00,88.52 222.00,92.00 Z
           M 47.00,124.21
           C 47.00,124.21 47.00,80.00 47.00,80.00
             47.00,77.99 47.14,74.03 46.26,72.30
             44.77,69.35 40.69,69.81 39.02,72.30
             37.79,74.16 38.00,77.81 38.00,80.00
             38.00,80.00 38.00,115.00 38.00,115.00
             38.00,118.37 37.48,127.25 39.02,129.85
             41.00,133.20 44.61,132.98 48.00,133.00
             48.00,133.00 71.00,133.00 71.00,133.00
             72.98,133.00 76.83,133.23 78.40,131.98
             80.38,130.40 80.61,125.82 75.94,124.21
             75.94,124.21 47.00,124.21 47.00,124.21 Z
           M 94.00,113.00
           C 94.00,113.00 121.00,113.00 121.00,113.00
             122.62,112.97 125.06,113.04 126.40,111.98
             130.29,108.90 126.49,98.23 124.20,95.02
             118.20,86.59 103.75,84.33 95.00,89.36
             82.75,96.43 81.64,119.05 91.33,128.53
             97.14,134.22 103.46,134.09 111.00,134.00
             114.66,133.95 129.41,131.84 125.87,125.30
             123.50,120.92 116.58,125.35 111.00,125.81
             101.83,126.57 96.87,120.98 94.00,113.00 Z
           M 166.00,106.00
           C 158.48,106.00 147.38,104.83 141.04,108.99
             132.65,114.51 132.96,127.88 142.02,132.55
             149.29,136.29 159.71,133.45 166.00,129.00
             169.10,134.49 174.83,134.84 175.00,126.00
             175.00,126.00 175.00,107.00 175.00,107.00
             174.98,94.27 170.71,87.17 157.00,87.00
             152.44,86.95 140.53,86.95 138.66,92.20
             137.09,96.58 142.08,97.06 145.00,96.70
             145.00,96.70 153.00,95.21 153.00,95.21
             160.61,94.74 165.13,98.52 166.00,106.00 Z
           M 119.00,106.00
           C 119.00,106.00 94.00,106.00 94.00,106.00
             97.90,90.45 116.05,90.53 119.00,106.00 Z
           M 206.00,95.34
           C 211.14,95.00 217.27,96.64 220.40,101.10
             221.97,103.34 221.95,105.40 222.00,108.00
             222.17,117.62 221.42,123.95 210.00,125.66
             192.57,128.27 186.50,100.08 206.00,95.34 Z
           M 166.00,113.11
           C 165.96,115.87 166.15,118.42 164.40,120.89
             160.68,126.16 150.20,127.49 146.43,124.26
             140.87,119.50 146.89,114.25 152.00,113.11
             154.08,112.95 156.85,113.00 159.00,113.11
             159.00,113.11 166.00,113.11 166.00,113.11 Z" />
</svg>
