<?xml version="1.0" encoding="UTF-8" standalone="no"?>
<!-- Created with Inkscape (http://www.inkscape.org/) -->

<svg
   width="371"
   height="76"
   viewBox="0 0 371 76"
   version="1.1"
   id="svg1"
   xml:space="preserve"
   xmlns="http://www.w3.org/2000/svg"
   xmlns:svg="http://www.w3.org/2000/svg"><defs
     id="defs1" /><g
     id="layer1"><path
       style="fill:#ffffff"
       d="m 8.0000001,60.184362 v -36.672 H 6.866455e-8 v 43.968 H 30.592 v -7.296 z m 43.0079969,1.792 c -5.12,0 -8.704,-3.584 -9.536,-8.768 h 25.6 c 0,-12.032 -6.016,-19.584 -16.256,-19.584 -9.472,0 -16.896,7.232 -16.896,17.216 0,10.176 7.808,17.408 17.344,17.408 4.8,0 10.56,-2.048 13.44,-5.12 l -4.48,-4.608 c -2.112,2.048 -5.824,3.456 -9.216,3.456 z m -0.064,-22.08 c 4.928,0 7.872,3.456 8.576,8.128 h -17.984 c 1.024,-4.928 4.672,-8.128 9.408,-8.128 z m 35.519997,-6.272 c -4.16,0 -8.512,1.152 -13.184,3.456 l 2.688,5.44 c 2.816,-1.408 5.824,-2.496 8.96,-2.496 6.016,0 8.064,3.712 8.064,7.552 v 0.832 c -3.008,-1.088 -6.208,-1.728 -9.216,-1.728 -7.488,0 -13.44,4.48 -13.44,11.008 0,6.4 5.248,10.56 12.288,10.56 3.84,0 7.936,-1.664 10.368,-4.672 v 3.904 h 7.615996 v -19.904 c 0,-8.384 -5.375996,-13.952 -14.143996,-13.952 z m -2.112,28.928 c -3.712,0 -6.528,-1.984 -6.528,-5.12 0,-3.136 3.2,-5.312 7.104,-5.312 2.88,0 5.632,0.448 8.064,1.216 v 3.776 c -0.832,3.52 -4.864,5.44 -8.64,5.44 z m 47.935966,-39.808 v 16.832 c -2.56,-3.712 -6.592,-5.952 -11.456,-5.952 -8.768,0 -15.232,7.168 -15.232,17.28 0,10.176 6.464,17.344 15.232,17.344 4.864,0 8.896,-2.24 11.456,-5.952 v 5.184 h 7.808 v -44.736 z m -9.344,38.848 c -5.632,0 -9.6,-4.48 -9.6,-10.688 0,-6.208 3.968,-10.624 9.6,-10.624 5.44,0 9.344,4.416 9.344,10.624 0,6.208 -3.904,10.688 -9.344,10.688 z"
       id="text1"
       aria-label="Lead" /><path
       id="rect2-9-8"
       style="fill:#ffffff"
       d="m 181.7207,11.230469 v 3 h -6.49023 v 3 h -6.49024 v 3 H 162.25 v 3 h -12.98047 v 3 h 3.24609 v 30 h 3.24415 v 9 h 3.24609 v 3 H 162.25 v 3 h 3.24414 v -15 h 3.24609 v 3 h 3.24415 v 3 h 3.24609 v 3 h 3.24414 v 3 h 3.24609 v 3 h 3.24414 v 3 h 6.49024 v -3 -3 h -3.2461 v -3 h -3.24414 v -3 h -3.24414 v -6 h -3.24609 v -3 h -3.24414 v -9 h 3.24414 v -3 h 3.24609 v -3 h 3.24414 v -3 h 3.24414 v -3 h 3.2461 v -6 h 3.24414 v -9 h -3.24414 v -3 h -3.24414 v -3 z m 0,9 h 3.24414 v 6 h -3.24414 v 3 h -3.24609 v 3 h -3.24414 v 3 h -3.24609 v 3 h -3.24415 v 3 h -3.24609 v 3 H 162.25 v -12 h 3.24414 v -3 h 3.24609 v -3 h 6.49024 v -3 h 6.49023 z" /><path
       id="rect2-9-8-1"
       style="fill:#ffffff"
       d="m 300.7207,11.230469 v 3 h -6.49023 v 3 h -6.49024 v 3 H 281.25 v 3 h -12.98047 v 3 h 3.24609 v 30 h 3.24415 v 9 h 3.24609 v 3 H 281.25 v 3 h 3.24414 v -15 h 3.24609 v 3 h 3.24415 v 3 h 3.24609 v 3 h 3.24414 v 3 h 3.24609 v 3 h 3.24414 v 3 h 6.49024 v -3 -3 h -3.2461 v -3 h -3.24414 v -3 h -3.24414 v -6 h -3.24609 v -3 h -3.24414 v -9 h 3.24414 v -3 h 3.24609 v -3 h 3.24414 v -3 h 3.24414 v -3 h 3.2461 v -6 h 3.24414 v -9 h -3.24414 v -3 h -3.24414 v -3 z m 0,9 h 3.24414 v 6 h -3.24414 v 3 h -3.24609 v 3 h -3.24414 v 3 h -3.24609 v 3 h -3.24415 v 3 h -3.24609 v 3 H 281.25 v -12 h 3.24414 v -3 h 3.24609 v -3 h 6.49024 v -3 h 6.49023 z" /><path
       id="rect3-4-8-7-3-9-0-6-9"
       style="fill:#ffffff"
       d="m 210.92578,0.5 v 9 h 3.24414 v 3 h -3.24414 v 30 h -3.24609 v 9 h 3.24609 v 3 h 3.24414 v -3 h 3.24414 v -9 h 3.2461 v -30 h -3.2461 v -3 h 16.22656 v 3 h 6.49024 v 3 h 3.24414 v 9 h 3.24414 v 15 H 243.375 v 3 h -3.24414 v 3 h -3.24609 v 3 h -3.24415 v 3 h -3.24609 v 3 h -6.49023 v 3 h -3.24414 v 3 h -12.98047 v 6 h 3.24609 v 3 h 9.73438 v -3 h 6.49023 v -3 h 3.24414 v -3 h 3.24609 v -3 h 3.24415 v -3 h 3.24609 v -3 h 6.48828 v -3 h 3.24609 v -3 h 3.24415 v -6 h 3.24609 v -15 h -3.24609 v -9 h -3.24415 v -3 h -3.24609 v -6 h -6.48828 v -3 h -6.49024 v -3 z" /><path
       id="path5"
       style="fill:#ffffff"
       d="m 363.43945,9.1992188 v 2.9003902 h -3.24414 V 15 h -3.24609 v 2.900391 h -3.24414 v 2.90039 h -3.24414 v 2.898438 h -3.2461 v 2.90039 H 343.9707 V 29.5 h -9.73632 V 20.800781 H 324.5 v 11.59961 h 3.24414 V 58.5 h 6.49024 v -2.900391 h 3.24609 v -5.798828 h 3.24414 v -2.90039 h 6.49023 v 8.699218 h 3.2461 V 58.5 h 3.24414 v 2.900391 h 3.24414 v 8.699218 h 3.24609 V 73 h 3.24414 v 2.900391 h 6.49024 v -5.800782 h -3.24414 v -5.798828 h -3.2461 v -2.90039 h -3.24414 v -5.800782 h -3.24609 v -8.699218 h -3.24414 v -5.800782 h -3.24414 v -8.699218 h 3.24414 V 29.5 h 3.24414 v -2.900391 h 3.24609 v -5.798828 h 6.49024 v -2.90039 h 3.24414 V 9.1992188 Z" /></g></svg>
