<svg width="740" height="128" version="1.1" id="svg5" xmlns:xlink="http://www.w3.org/1999/xlink" xmlns="http://www.w3.org/2000/svg"><defs id="defs2"><linearGradient id="linearGradient25973"><stop style="stop-color:#70f4f6;stop-opacity:1" offset="0" id="stop25969"/><stop style="stop-color:#72f4af;stop-opacity:1" offset="1" id="stop25971"/></linearGradient><linearGradient id="linearGradient15151"><stop style="stop-color:#72dcff;stop-opacity:1" offset="0" id="stop15147"/><stop style="stop-color:#4db4fa;stop-opacity:1" offset=".4" id="stop16609"/><stop style="stop-color:#4bb3f9;stop-opacity:1" offset=".605" id="stop18063"/><stop style="stop-color:#0781eb;stop-opacity:1" offset="1" id="stop15149"/></linearGradient><linearGradient xlink:href="#linearGradient15151" id="linearGradient15153" x1="0" y1="60" x2="120" y2="60" gradientUnits="userSpaceOnUse" gradientTransform="matrix(1.06667 0 0 1.06667 0 -128)"/><linearGradient xlink:href="#linearGradient25973" id="linearGradient25975" x1="20.005" y1="60" x2="100" y2="60" gradientUnits="userSpaceOnUse" gradientTransform="matrix(1.03509 0 0 1.03509 -28.098 -145.983)"/></defs><g id="layer1"><path style="fill:url(#linearGradient15153);fill-opacity:1;stroke:none;stroke-width:3.75px;stroke-dasharray:3.75 3.75;stroke-dashoffset:0;stroke-opacity:1" id="rect9674" d="M16-128h96a16 16 45 0 1 16 16v96a16 16 135 0 1-16 16H16A16 16 45 0 1 0-16v-96a16 16 135 0 1 16-16z" transform="rotate(90)"/><circle style="fill:#fff;fill-opacity:1;stroke-width:.66203px" id="path111" cx="64" cy="52.267" r="10.667"/><path style="fill:#fff;fill-opacity:1;stroke-width:.655082px" id="path221" d="M-44.8-86.4a19.2 18.133 0 0 1-9.6 15.704 19.2 18.133 0 0 1-19.2 0A19.2 18.133 0 0 1-83.2-86.4H-64Z" transform="scale(-1)"/><path id="rect324" style="fill:#cffbe4;fill-opacity:1;stroke-width:.858395px" d="M16 24.4v83.333A4.267 4.267 0 0 0 20.267 112h100.266a2.133 2.133 0 0 0 0-4.267H22.4a2.133 2.133 0 0 1-2.133-2.133V24.4a2 2 45 0 0-2-2H18a2 2 135 0 0-2 2z"/><path id="rect324-6" style="fill:#d0fbfa;fill-opacity:1;stroke-width:.858395px" d="M7.467 16a2.133 2.133 0 0 0 0 4.267H105.6c1.178 0 2.133.955 2.133 2.133v81.2a2 2 45 0 0 2 2H110a2 2 135 0 0 2-2V20.267A4.267 4.267 0 0 0 107.733 16z"/><path style="fill:#cffbe4;fill-opacity:1;stroke-width:.24835px" id="rect525" transform="scale(-1)" d="M-110-122.667h.267a2 2 45 0 1 2 2v4.534a2 2 135 0 1-2 2H-110a2 2 45 0 1-2-2v-4.534a2 2 135 0 1 2-2z"/><path style="fill:#d0fbfa;fill-opacity:1;stroke-width:.248349px" id="rect527" d="M18 5.333h.267a2 2 45 0 1 2 2v4.534a2 2 135 0 1-2 2H18a2 2 45 0 1-2-2V7.333a2 2 135 0 1 2-2z"/><circle style="fill:none;stroke:url(#linearGradient25975);stroke-width:4.00002px;stroke-linecap:round;stroke-linejoin:miter;stroke-miterlimit:4;stroke-dasharray:4.00002 7.20004;stroke-dashoffset:0;stroke-opacity:1;paint-order:normal" id="path8894" transform="rotate(112.93)" cx="34.008" cy="-83.878" r="39.333"/><g aria-label="Avatar Cropper" id="text327" style="opacity:1;fill:#eee;stroke-width:72px;stroke-linecap:round;stroke-dasharray:144 144;font-size:85.3333px"><path d="m209.264 96.587-5.973-17.579h-24.064l-5.974 17.579H166l20.821-59.563h9.131l20.821 59.563zM191.429 43.68h-.426l-10.07 29.013H201.5z" style="-inkscape-font-specification:&quot;IBM Plex Sans&quot;;font-family:IBM Plex Sans" id="path3606"/><path d="m234.01 96.587-15.445-44.032h6.827l7.68 21.845 4.779 15.019h.426l4.779-15.019 7.85-21.845h6.571l-15.53 44.032z" style="-inkscape-font-specification:&quot;IBM Plex Sans&quot;;font-family:IBM Plex Sans" id="path3608"/><path d="M297.499 96.587q-3.84 0-5.547-2.048-1.621-2.048-2.048-5.12h-.427q-1.45 4.096-4.778 6.144-3.328 2.048-7.936 2.048-6.998 0-10.923-3.584-3.84-3.584-3.84-9.728 0-6.23 4.523-9.558 4.608-3.328 14.25-3.328h8.704v-4.352q0-4.693-2.56-7.168-2.56-2.474-7.85-2.474-4.011 0-6.742 1.792-2.645 1.792-4.437 4.778l-4.096-3.84q1.792-3.584 5.717-6.058 3.926-2.56 9.899-2.56 8.021 0 12.459 3.925 4.437 3.925 4.437 10.923v24.234h5.035v5.974zm-19.627-4.779q2.56 0 4.693-.597 2.134-.598 3.67-1.707 1.536-1.11 2.389-2.56.853-1.45.853-3.157v-7.254h-9.045q-5.888 0-8.619 1.707-2.645 1.707-2.645 4.95v1.791q0 3.243 2.304 5.035 2.39 1.792 6.4 1.792z" style="-inkscape-font-specification:&quot;IBM Plex Sans&quot;;font-family:IBM Plex Sans" id="path3610"/><path d="M320.795 96.587q-3.584 0-5.462-1.963-1.792-2.048-1.792-5.29V58.527h-7.253v-5.973h4.096q2.219 0 2.987-.854.853-.938.853-3.157v-8.192h6.144v12.203h9.643v5.973h-9.643v32.085h8.96v5.974z" style="-inkscape-font-specification:&quot;IBM Plex Sans&quot;;font-family:IBM Plex Sans" id="path3612"/><path d="M373.019 96.587q-3.84 0-5.547-2.048-1.621-2.048-2.048-5.12h-.427q-1.45 4.096-4.778 6.144-3.328 2.048-7.936 2.048-6.998 0-10.923-3.584-3.84-3.584-3.84-9.728 0-6.23 4.523-9.558 4.608-3.328 14.25-3.328h8.704v-4.352q0-4.693-2.56-7.168-2.56-2.474-7.85-2.474-4.011 0-6.742 1.792-2.645 1.792-4.437 4.778l-4.096-3.84q1.792-3.584 5.717-6.058 3.926-2.56 9.899-2.56 8.021 0 12.459 3.925 4.437 3.925 4.437 10.923v24.234h5.035v5.974zm-19.627-4.779q2.56 0 4.693-.597 2.134-.598 3.67-1.707 1.536-1.11 2.389-2.56.853-1.45.853-3.157v-7.254h-9.045q-5.888 0-8.619 1.707-2.645 1.707-2.645 4.95v1.791q0 3.243 2.304 5.035 2.39 1.792 6.4 1.792z" style="-inkscape-font-specification:&quot;IBM Plex Sans&quot;;font-family:IBM Plex Sans" id="path3614"/><path d="M386.587 96.587V52.555h6.826v8.106h.427q1.195-3.157 4.267-5.632 3.072-2.474 8.448-2.474h2.645v6.826h-4.01q-5.547 0-8.705 2.134-3.072 2.048-3.072 5.205v29.867z" style="-inkscape-font-specification:&quot;IBM Plex Sans&quot;;font-family:IBM Plex Sans" id="path3616"/><path d="M459.717 97.61q-11.349 0-17.664-7.68-6.314-7.765-6.314-22.783 0-15.019 6.314-23.04Q448.368 36 459.717 36q7.51 0 12.544 3.413 5.12 3.414 7.936 9.643l-5.802 3.499q-1.792-4.608-5.462-7.339-3.669-2.816-9.216-2.816-3.84 0-6.912 1.45-2.986 1.451-5.12 4.182-2.048 2.645-3.157 6.4-1.11 3.67-1.11 8.277v8.875q0 9.216 4.267 14.421 4.267 5.206 12.032 5.206 5.718 0 9.558-2.902 3.84-2.986 5.632-7.85l5.717 3.584q-2.816 6.314-8.107 9.984-5.29 3.584-12.8 3.584z" style="-inkscape-font-specification:&quot;IBM Plex Sans&quot;;font-family:IBM Plex Sans" id="path3618"/><path d="M491.035 96.587V52.555h6.826v8.106h.427q1.195-3.157 4.267-5.632 3.072-2.474 8.448-2.474h2.645v6.826h-4.01q-5.547 0-8.705 2.134-3.072 2.048-3.072 5.205v29.867z" style="-inkscape-font-specification:&quot;IBM Plex Sans&quot;;font-family:IBM Plex Sans" id="path3620"/><path d="M538.565 97.61q-4.437 0-8.106-1.62-3.67-1.622-6.315-4.609-2.56-3.072-4.01-7.253-1.451-4.267-1.451-9.557 0-5.206 1.45-9.472 1.451-4.267 4.011-7.254 2.645-3.072 6.315-4.693 3.67-1.621 8.106-1.621 4.438 0 8.022 1.621 3.67 1.621 6.314 4.693 2.646 2.987 4.096 7.254 1.451 4.266 1.451 9.472 0 5.29-1.45 9.557-1.451 4.181-4.097 7.253-2.645 2.987-6.314 4.608-3.584 1.622-8.022 1.622zm0-6.058q5.547 0 9.046-3.413 3.498-3.414 3.498-10.411v-6.315q0-6.997-3.498-10.41-3.499-3.414-9.046-3.414-5.546 0-9.045 3.414-3.499 3.413-3.499 10.41v6.315q0 6.997 3.5 10.41 3.498 3.414 9.044 3.414z" style="-inkscape-font-specification:&quot;IBM Plex Sans&quot;;font-family:IBM Plex Sans" id="path3622"/><path d="M569.712 52.555h6.827v7.168h.341q1.707-4.182 4.95-6.144 3.327-2.048 7.935-2.048 4.096 0 7.424 1.621 3.328 1.621 5.632 4.608 2.39 2.987 3.584 7.253 1.28 4.267 1.28 9.558 0 5.29-1.28 9.557-1.194 4.267-3.584 7.253-2.304 2.987-5.632 4.608-3.328 1.622-7.424 1.622-8.96 0-12.885-8.192h-.341v24.234h-6.827zm18.176 38.912q5.803 0 9.13-3.584 3.329-3.67 3.329-9.558v-7.509q0-5.888-3.328-9.472-3.328-3.67-9.131-3.67-2.304 0-4.437.683-2.048.598-3.584 1.707-1.536 1.11-2.475 2.73-.853 1.537-.853 3.329v16.384q0 2.133.853 3.84.939 1.621 2.475 2.816 1.536 1.109 3.584 1.706 2.133.598 4.437.598z" style="-inkscape-font-specification:&quot;IBM Plex Sans&quot;;font-family:IBM Plex Sans" id="path3624"/><path d="M619.205 52.555h6.827v7.168h.341q1.707-4.182 4.95-6.144 3.328-2.048 7.936-2.048 4.096 0 7.424 1.621 3.328 1.621 5.632 4.608 2.389 2.987 3.584 7.253 1.28 4.267 1.28 9.558 0 5.29-1.28 9.557-1.195 4.267-3.584 7.253-2.304 2.987-5.632 4.608-3.328 1.622-7.424 1.622-8.96 0-12.886-8.192h-.341v24.234h-6.827zm18.176 38.912q5.803 0 9.131-3.584 3.328-3.67 3.328-9.558v-7.509q0-5.888-3.328-9.472-3.328-3.67-9.13-3.67-2.305 0-4.438.683-2.048.598-3.584 1.707-1.536 1.11-2.475 2.73-.853 1.537-.853 3.329v16.384q0 2.133.853 3.84.939 1.621 2.475 2.816 1.536 1.109 3.584 1.706 2.133.598 4.437.598z" style="-inkscape-font-specification:&quot;IBM Plex Sans&quot;;font-family:IBM Plex Sans" id="path3626"/><path d="M685.253 97.61q-4.522 0-8.192-1.62-3.584-1.622-6.229-4.609-2.56-3.072-4.01-7.253-1.366-4.267-1.366-9.557 0-5.206 1.365-9.472 1.451-4.267 4.011-7.254 2.645-3.072 6.23-4.693 3.669-1.621 8.191-1.621 4.438 0 7.936 1.621 3.499 1.621 5.974 4.523 2.474 2.816 3.754 6.741 1.366 3.925 1.366 8.619v3.242h-31.659v2.048q0 2.816.853 5.291.939 2.39 2.56 4.181 1.707 1.792 4.096 2.816 2.475 1.024 5.547 1.024 4.181 0 7.253-1.962 3.158-1.963 4.864-5.632l4.864 3.498q-2.133 4.523-6.656 7.339-4.522 2.73-10.752 2.73zm0-40.362q-2.816 0-5.12 1.024-2.304.939-4.01 2.73-1.622 1.793-2.56 4.267-.939 2.39-.939 5.291v.597h24.32v-.938q0-5.888-3.243-9.387-3.157-3.584-8.448-3.584z" style="-inkscape-font-specification:&quot;IBM Plex Sans&quot;;font-family:IBM Plex Sans" id="path3628"/><path d="M715.547 96.587V52.555h6.826v8.106h.427q1.195-3.157 4.267-5.632 3.072-2.474 8.448-2.474h2.645v6.826h-4.01q-5.547 0-8.705 2.134-3.072 2.048-3.072 5.205v29.867z" style="-inkscape-font-specification:&quot;IBM Plex Sans&quot;;font-family:IBM Plex Sans" id="path3630"/></g></g></svg>